<svg version="1.1" id="Layer_1" xmlns="http://www.w3.org/2000/svg" xmlns:xlink="http://www.w3.org/1999/xlink" x="0px" y="0px"
	 width="100%" viewBox="0 0 512 512" enable-background="new 0 0 512 512" xml:space="preserve">
<path fill="#659AD2" opacity="1.000000" stroke="none" 
	d="
M243.000000,1.000000 
	C252.020889,1.000000 261.041779,1.000000 270.200867,1.282581 
	C280.038727,7.075572 289.754578,12.557613 299.434723,18.102095 
	C322.126984,31.099525 344.836090,44.068050 367.475739,57.156654 
	C397.152771,74.313736 426.729370,91.644859 456.436523,108.749344 
	C465.423859,113.923981 474.376892,118.959816 478.724243,129.065338 
	C450.636688,145.245438 422.873047,161.283890 395.066986,177.248505 
	C392.982117,178.445496 390.594482,179.115143 388.026062,179.877228 
	C387.142365,178.902023 386.553436,178.096436 386.021942,177.254562 
	C352.207245,123.695435 292.019836,97.012878 229.560501,107.896660 
	C143.377533,122.914368 87.057419,211.767349 110.687332,296.152039 
	C114.200096,308.696472 120.214935,320.540253 124.868958,332.998962 
	C94.760170,350.571045 64.854637,367.852325 34.630966,384.950745 
	C30.582640,377.159485 28.881161,369.242676 28.902216,360.647736 
	C29.075693,289.832153 28.929466,219.015793 29.078630,148.200104 
	C29.100306,137.909531 33.351971,128.948959 40.222862,121.275597 
	C48.638084,111.877541 60.358788,107.434845 70.799500,101.142807 
	C86.666679,91.580528 102.956978,82.722847 119.003159,73.454407 
	C135.200195,64.098831 151.312820,54.597240 167.473419,45.178505 
	C181.655182,36.913090 195.782257,28.550331 210.065353,20.463501 
	C220.798172,14.386776 231.746445,8.690993 242.560562,2.755944 
	C242.920013,2.558673 242.862930,1.602448 243.000000,1.000000 
z"/>
<path fill="#000000" opacity="1.000000" stroke="none" 
	d="
M242.531342,1.000000 
	C242.862930,1.602448 242.920013,2.558673 242.560562,2.755944 
	C231.746445,8.690993 220.798172,14.386776 210.065353,20.463501 
	C195.782257,28.550331 181.655182,36.913090 167.473419,45.178505 
	C151.312820,54.597240 135.200195,64.098831 119.003159,73.454407 
	C102.956978,82.722847 86.666679,91.580528 70.799500,101.142807 
	C60.358788,107.434845 48.638084,111.877541 40.222862,121.275597 
	C33.351971,128.948959 29.100306,137.909531 29.078630,148.200104 
	C28.929466,219.015793 29.075693,289.832153 28.902216,360.647736 
	C28.881161,369.242676 30.582640,377.159485 34.790260,385.251556 
	C39.596848,393.758270 46.461231,398.782928 54.279034,403.241882 
	C82.962456,419.601624 111.358192,436.464691 139.948303,452.989410 
	C171.258163,471.086121 202.673325,489.000671 234.011261,507.048981 
	C237.119125,508.838867 240.008957,511.007294 243.000000,513.000000 
	C162.368774,513.000000 81.737549,513.000000 1.053161,513.000000 
	C1.053161,342.443756 1.053161,171.887512 1.053161,1.000000 
	C81.353928,1.000000 161.708298,1.000000 242.531342,1.000000 
z"/>
<path fill="#000000" opacity="1.000000" stroke="none" 
	d="
M479.037537,128.905289 
	C474.376892,118.959816 465.423859,113.923981 456.436523,108.749344 
	C426.729370,91.644859 397.152771,74.313736 367.475739,57.156654 
	C344.836090,44.068050 322.126984,31.099525 299.434723,18.102095 
	C289.754578,12.557613 280.038727,7.075572 270.669556,1.282581 
	C351.631226,1.000000 432.262451,1.000000 512.946838,1.000000 
	C512.946838,171.556244 512.946838,342.112488 512.946838,513.000000 
	C432.646088,513.000000 352.291687,513.000000 271.407410,512.632812 
	C278.009094,508.241394 285.179077,504.283661 292.264587,500.179962 
	C309.948944,489.937775 327.565948,479.579102 345.264191,469.361115 
	C363.827179,458.643890 382.467285,448.060364 401.047974,437.373657 
	C419.900909,426.530457 438.711578,415.613831 457.562439,404.767029 
	C466.211823,399.790131 474.609406,394.570831 479.402771,384.867065 
	C483.233215,377.459198 485.096954,369.991058 485.080597,361.821045 
	C484.938171,290.680298 485.152893,219.538269 484.738861,148.399658 
	C484.700958,141.890701 481.024414,135.402908 479.037537,128.905289 
z"/>
<path fill="#004482" opacity="1.000000" stroke="none" 
	d="
M479.115204,385.074280 
	C474.609406,394.570831 466.211823,399.790131 457.562439,404.767029 
	C438.711578,415.613831 419.900909,426.530457 401.047974,437.373657 
	C382.467285,448.060364 363.827179,458.643890 345.264191,469.361115 
	C327.565948,479.579102 309.948944,489.937775 292.264587,500.179962 
	C285.179077,504.283661 278.009094,508.241394 270.938782,512.632812 
	C261.979095,513.000000 252.958206,513.000000 243.468658,513.000000 
	C240.008957,511.007294 237.119125,508.838867 234.011261,507.048981 
	C202.673325,489.000671 171.258163,471.086121 139.948303,452.989410 
	C111.358192,436.464691 82.962456,419.601624 54.279034,403.241882 
	C46.461231,398.782928 39.596848,393.758270 35.108406,385.434418 
	C64.854637,367.852325 94.760170,350.571045 125.179893,333.157532 
	C161.593063,389.045837 212.498596,415.288330 278.797089,406.685486 
	C326.770874,400.460449 363.186890,374.646423 388.451294,333.076599 
	C400.463562,339.843384 412.147400,346.519501 423.812805,353.227661 
	C442.253448,363.831909 460.681702,374.457642 479.115204,385.074280 
z"/>
<path fill="#FEFEFF" opacity="1.000000" stroke="none" 
	d="
M388.114594,333.000305 
	C363.186890,374.646423 326.770874,400.460449 278.797089,406.685486 
	C212.498596,415.288330 161.593063,389.045837 125.383163,332.866730 
	C120.214935,320.540253 114.200096,308.696472 110.687332,296.152039 
	C87.057419,211.767349 143.377533,122.914368 229.560501,107.896660 
	C292.019836,97.012878 352.207245,123.695435 386.021942,177.254562 
	C386.553436,178.096436 387.142365,178.902023 387.937195,180.227341 
	C387.429993,181.355667 386.764343,182.108978 385.939423,182.588028 
	C365.718567,194.330612 345.485352,206.051910 325.232025,217.738373 
	C324.270111,218.293396 323.103424,218.493500 322.000153,218.516022 
	C306.373077,191.223358 273.424133,176.321823 243.035202,182.474823 
	C208.435532,189.480392 183.961243,216.825378 181.349091,252.223572 
	C180.254272,267.059937 183.063461,281.327728 191.510361,294.430359 
	C192.036041,295.678040 192.421646,296.602448 192.945984,297.439972 
	C209.044022,323.153931 239.453949,337.067993 269.408813,331.730652 
	C292.377106,327.638153 310.334045,315.723114 322.518982,295.257385 
	C344.611877,307.841858 366.363220,320.421082 388.114594,333.000305 
z"/>
<path fill="#015A9C" opacity="1.000000" stroke="none" 
	d="
M388.451294,333.076599 
	C366.363220,320.421082 344.611877,307.841858 322.293030,294.983276 
	C311.142181,288.465149 300.546112,282.247833 289.979004,275.981598 
	C279.278442,269.636230 268.606567,263.242462 258.142670,256.615143 
	C268.955109,250.208313 279.576752,244.106689 290.130585,237.890030 
	C300.799377,231.605652 311.401031,225.207321 322.032104,218.858902 
	C323.103424,218.493500 324.270111,218.293396 325.232025,217.738373 
	C345.485352,206.051910 365.718567,194.330612 385.939423,182.588028 
	C386.764343,182.108978 387.429993,181.355667 388.258728,180.380035 
	C390.594482,179.115143 392.982117,178.445496 395.066986,177.248505 
	C422.873047,161.283890 450.636688,145.245438 478.724243,129.065338 
	C481.024414,135.402908 484.700958,141.890701 484.738861,148.399658 
	C485.152893,219.538269 484.938171,290.680298 485.080597,361.821045 
	C485.096954,369.991058 483.233215,377.459198 479.402771,384.867065 
	C460.681702,374.457642 442.253448,363.831909 423.812805,353.227661 
	C412.147400,346.519501 400.463562,339.843384 388.451294,333.076599 
M385.425964,231.803177 
	C382.010193,231.803177 378.594421,231.803177 374.763000,231.803177 
	C374.763000,237.778488 374.763000,243.026215 374.763000,248.688324 
	C369.064606,248.688324 363.798676,248.688324 358.300659,248.688324 
	C358.300659,254.374313 358.300659,259.619568 358.300659,265.450653 
	C363.932190,265.450653 369.335358,265.450653 375.122437,265.450653 
	C375.122437,271.305206 375.122437,276.578247 375.122437,281.791565 
	C380.902435,281.791565 386.274078,281.791565 392.132507,281.791565 
	C392.132507,276.159668 392.132507,270.923767 392.132507,265.178925 
	C397.867828,265.178925 403.106415,265.178925 408.364136,265.178925 
	C408.364136,259.415833 408.364136,254.200302 408.364136,248.492584 
	C402.720428,248.492584 397.455902,248.492584 391.753052,248.492584 
	C391.753052,242.725235 391.753052,237.459061 391.753052,231.803192 
	C389.665833,231.803192 388.030426,231.803192 385.425964,231.803177 
M454.991211,233.679810 
	C454.412140,233.061996 453.848297,231.925659 453.251587,231.908127 
	C448.328369,231.763519 443.399048,231.826370 438.036194,231.826370 
	C438.036194,237.647064 438.036194,242.892456 438.036194,248.800781 
	C432.237732,248.800781 426.874084,248.800781 421.449036,248.800781 
	C421.449036,254.569977 421.449036,259.658447 421.449036,265.392883 
	C427.051453,265.392883 432.428528,265.392883 438.223145,265.392883 
	C438.223145,271.292511 438.223145,276.550720 438.223145,281.841553 
	C444.030151,281.841553 449.395233,281.841553 455.174194,281.841553 
	C455.174194,276.252167 455.174194,271.008636 455.174194,265.155731 
	C460.947540,265.155731 466.311035,265.155731 471.524200,265.155731 
	C471.524200,259.305450 471.524200,254.094101 471.524200,248.472809 
	C465.869080,248.472809 460.603485,248.472809 455.001068,248.472809 
	C455.001068,243.578735 455.001068,239.113495 454.991211,233.679810 
z"/>
<path fill="#659AD2" opacity="1.000000" stroke="none" 
	d="
M322.000153,218.516022 
	C311.401031,225.207321 300.799377,231.605652 290.130585,237.890030 
	C279.576752,244.106689 268.955109,250.208313 257.798462,256.692017 
	C236.954437,268.681824 216.682510,280.352783 196.381424,291.972748 
	C194.838547,292.855865 193.088623,293.377136 191.434952,294.066589 
	C183.063461,281.327728 180.254272,267.059937 181.349091,252.223572 
	C183.961243,216.825378 208.435532,189.480392 243.035202,182.474823 
	C273.424133,176.321823 306.373077,191.223358 322.000153,218.516022 
z"/>
<path fill="#014583" opacity="1.000000" stroke="none" 
	d="
M191.510361,294.430359 
	C193.088623,293.377136 194.838547,292.855865 196.381424,291.972748 
	C216.682510,280.352783 236.954437,268.681824 257.577881,256.946777 
	C268.606567,263.242462 279.278442,269.636230 289.979004,275.981598 
	C300.546112,282.247833 311.142181,288.465149 321.951508,294.978027 
	C310.334045,315.723114 292.377106,327.638153 269.408813,331.730652 
	C239.453949,337.067993 209.044022,323.153931 192.945984,297.439972 
	C192.421646,296.602448 192.036041,295.678040 191.510361,294.430359 
z"/>
<path fill="#FDFDFE" opacity="1.000000" stroke="none" 
	d="
M385.910492,231.803192 
	C388.030426,231.803192 389.665833,231.803192 391.753052,231.803192 
	C391.753052,237.459061 391.753052,242.725235 391.753052,248.492584 
	C397.455902,248.492584 402.720428,248.492584 408.364136,248.492584 
	C408.364136,254.200302 408.364136,259.415833 408.364136,265.178925 
	C403.106415,265.178925 397.867828,265.178925 392.132507,265.178925 
	C392.132507,270.923767 392.132507,276.159668 392.132507,281.791565 
	C386.274078,281.791565 380.902435,281.791565 375.122437,281.791565 
	C375.122437,276.578247 375.122437,271.305206 375.122437,265.450653 
	C369.335358,265.450653 363.932190,265.450653 358.300659,265.450653 
	C358.300659,259.619568 358.300659,254.374313 358.300659,248.688324 
	C363.798676,248.688324 369.064606,248.688324 374.763000,248.688324 
	C374.763000,243.026215 374.763000,237.778488 374.763000,231.803177 
	C378.594421,231.803177 382.010193,231.803177 385.910492,231.803192 
z"/>
<path fill="#FDFEFE" opacity="1.000000" stroke="none" 
	d="
M454.996155,234.164032 
	C455.001068,239.113495 455.001068,243.578735 455.001068,248.472809 
	C460.603485,248.472809 465.869080,248.472809 471.524200,248.472809 
	C471.524200,254.094101 471.524200,259.305450 471.524200,265.155731 
	C466.311035,265.155731 460.947540,265.155731 455.174194,265.155731 
	C455.174194,271.008636 455.174194,276.252167 455.174194,281.841553 
	C449.395233,281.841553 444.030151,281.841553 438.223145,281.841553 
	C438.223145,276.550720 438.223145,271.292511 438.223145,265.392883 
	C432.428528,265.392883 427.051453,265.392883 421.449036,265.392883 
	C421.449036,259.658447 421.449036,254.569977 421.449036,248.800781 
	C426.874084,248.800781 432.237732,248.800781 438.036194,248.800781 
	C438.036194,242.892456 438.036194,237.647064 438.036194,231.826370 
	C443.399048,231.826370 448.328369,231.763519 453.251587,231.908127 
	C453.848297,231.925659 454.412140,233.061996 454.996155,234.164032 
z"/>
</svg>