<svg version="1.1" id="Layer_1" xmlns="http://www.w3.org/2000/svg" xmlns:xlink="http://www.w3.org/1999/xlink" x="0px" y="0px"
	 width="100%" viewBox="0 0 1200 1200" enable-background="new 0 0 1200 1200" xml:space="preserve">
<path fill="#F87D4F" opacity="1.000000" stroke="none" 
	d="
M789.000000,1201.000000 
	C526.000000,1201.000000 263.500000,1201.000000 1.000000,1201.000000 
	C1.000000,801.000000 1.000000,401.000000 1.000000,1.000000 
	C401.000000,1.000000 801.000000,1.000000 1201.000000,1.000000 
	C1201.000000,401.000000 1201.000000,801.000000 1201.000000,1201.000000 
	C1063.833374,1201.000000 926.666687,1201.000000 789.000000,1201.000000 
M622.581238,601.925354 
	C618.583252,595.069397 615.478516,587.448486 610.399536,581.518372 
	C600.134277,569.532959 573.885315,571.270508 568.420959,591.294434 
	C566.952820,596.674500 566.388245,602.457214 566.380371,608.056396 
	C566.255371,696.710754 566.310608,785.365417 566.209534,874.019897 
	C566.205322,877.725586 567.185669,878.932190 570.960205,878.875244 
	C584.288696,878.674011 597.627930,878.569824 610.950500,878.914612 
	C615.878357,879.042114 616.957886,877.453125 616.948181,872.755310 
	C616.802612,802.431885 616.848267,732.107971 616.848877,661.784241 
	C616.848938,659.020447 616.848877,656.256653 616.848877,653.492798 
	C618.566101,656.175903 619.530579,658.947571 620.237427,661.783508 
	C625.146240,681.477295 630.020752,701.179626 634.869507,720.888306 
	C642.938538,753.685730 650.657593,786.574036 659.170654,819.255615 
	C663.350037,835.300232 668.388123,851.187439 674.169800,866.724487 
	C677.804199,876.491333 685.271179,882.795715 696.491516,884.357910 
	C707.406372,885.877502 718.124756,881.357544 722.509460,871.267090 
	C724.388428,866.942749 725.794617,862.002747 725.807251,857.338196 
	C726.054504,766.351807 726.047546,675.364868 726.182922,584.378052 
	C726.188354,580.744019 724.742493,579.842102 721.434753,579.870544 
	C708.270935,579.983643 695.098206,580.165466 681.944092,579.788818 
	C676.681335,579.638123 675.641113,581.449097 675.652161,586.358032 
	C675.807556,655.348267 675.758301,724.338989 675.758789,793.329590 
	C675.758789,795.576843 675.758789,797.824097 675.758789,800.071350 
	C675.295593,800.133423 674.832397,800.195435 674.369263,800.257507 
	C673.332886,796.717041 672.178040,793.206421 671.278198,789.631592 
	C661.204651,749.613220 651.327759,709.544495 641.064026,669.575073 
	C635.314270,647.184143 628.941345,624.953247 622.581238,601.925354 
M389.497650,872.266479 
	C389.469574,878.796570 389.469574,878.795898 395.820862,878.795654 
	C407.982422,878.795166 420.144012,878.795532 432.305573,878.795471 
	C434.742279,878.795410 437.178955,878.795410 440.161133,878.795410 
	C440.161133,875.888000 440.161102,873.757446 440.161102,871.626953 
	C440.161102,829.477905 440.218719,787.328735 440.074493,745.180176 
	C440.059662,740.836914 440.754883,738.907104 445.731659,739.203979 
	C453.699951,739.679321 461.717377,739.333801 469.714020,739.330383 
	C477.699280,739.326904 477.704498,739.324341 477.704773,747.106812 
	C477.706238,789.255859 477.759735,831.405029 477.618378,873.553589 
	C477.604492,877.702820 478.757355,878.973267 482.942230,878.889587 
	C495.765076,878.633118 508.596283,878.796936 521.424255,878.796326 
	C528.446045,878.796021 528.467651,878.795227 528.468323,871.603149 
	C528.474121,811.128479 528.603516,750.653320 528.403625,690.179321 
	C528.327637,667.198547 527.517944,644.197815 520.961426,621.908264 
	C516.458069,606.598572 509.832947,592.262390 495.490295,583.821838 
	C475.074585,571.807373 453.227661,571.915039 431.378082,579.280884 
	C414.393768,585.006592 405.145844,598.603882 399.137604,614.558350 
	C391.398895,635.107849 389.558685,656.667114 389.529022,678.400391 
	C389.441284,742.706665 389.498077,807.013184 389.497650,872.266479 
M813.597595,684.204041 
	C816.450012,668.343628 818.912415,652.399109 822.308594,636.656067 
	C824.190857,627.931152 827.044250,619.235840 833.505127,612.480713 
	C839.386719,606.331177 847.736389,606.452209 853.058594,613.076050 
	C855.505615,616.121399 857.999146,619.772888 858.678040,623.478088 
	C860.947388,635.864807 862.871948,648.357239 864.019287,660.892517 
	C864.835938,669.814453 864.200195,678.870361 864.186584,687.866516 
	C864.182983,690.211365 864.403137,692.337952 867.513855,692.268127 
	C876.329834,692.070190 885.229919,692.540161 893.940063,691.470398 
	C905.535400,690.046387 910.245972,684.691589 910.593079,672.860657 
	C911.198608,652.228394 908.906189,631.936096 900.608948,612.752258 
	C885.072754,576.831421 847.765808,566.820312 815.875427,579.600708 
	C796.859680,587.221619 785.944153,602.821838 777.932129,620.724915 
	C767.098083,644.933655 762.798889,670.799133 761.423340,696.921692 
	C759.574951,732.022644 759.611450,767.198303 766.926147,801.898376 
	C771.249390,822.407349 777.680054,842.008545 790.380737,859.138245 
	C817.697388,895.980774 872.479431,892.549683 895.026062,852.644897 
	C905.927612,833.350525 911.084778,812.605591 911.951477,790.668823 
	C912.087463,787.227539 912.933594,785.990112 916.532166,786.176453 
	C922.513611,786.486206 928.534912,786.027527 934.516357,786.337585 
	C939.049683,786.572693 940.799500,785.043213 940.646484,780.392883 
	C940.372742,772.072021 940.590637,763.735657 940.566040,755.405823 
	C940.546509,748.780640 940.461792,748.687622 933.867920,748.685730 
	C895.050659,748.674438 856.232971,748.601868 817.416565,748.783569 
	C812.868225,748.804871 811.009033,747.580627 811.204468,742.972656 
	C812.022705,723.686523 812.709717,704.394897 813.597595,684.204041 
M235.917618,825.500000 
	C235.918060,841.493347 236.047165,857.488342 235.832550,873.478821 
	C235.775650,877.718567 237.267059,878.920776 241.310791,878.863037 
	C254.302750,878.677673 267.299042,878.798645 280.293640,878.793396 
	C286.903320,878.790771 286.921875,878.782959 286.922729,872.129761 
	C286.928253,829.813965 287.017426,787.497681 286.804993,745.182983 
	C286.779053,740.015137 288.321106,738.712097 293.298126,738.788208 
	C311.286499,739.063354 329.281616,738.917236 347.274048,738.870361 
	C349.233704,738.865295 352.010895,739.823059 352.021698,736.251221 
	C352.055756,724.972961 352.034241,713.694519 352.034241,701.794861 
	C349.702454,701.794861 347.921936,701.794739 346.141449,701.794800 
	C328.148895,701.795166 310.154755,701.666626 292.165009,701.891296 
	C287.952393,701.943909 286.808411,700.667725 286.840027,696.539246 
	C287.017273,673.383606 287.048370,650.224548 286.821869,627.069702 
	C286.775604,622.338684 287.996521,620.738281 292.912109,620.793762 
	C314.567047,621.038330 336.226929,620.816406 357.883362,620.981995 
	C361.778320,621.011719 363.141235,619.965210 363.033295,615.925415 
	C362.766357,605.936707 362.689178,595.926514 363.056091,585.944153 
	C363.236755,581.029053 361.570312,579.872803 356.857941,579.895264 
	C318.874542,580.076355 280.889923,579.996704 242.905655,579.999268 
	C235.926575,579.999695 235.919128,580.005188 235.918961,587.098389 
	C235.917084,666.232239 235.917679,745.366150 235.917618,825.500000 
M850.583984,420.503204 
	C850.584412,457.167023 850.684570,493.831390 850.471436,530.493958 
	C850.441528,535.642273 851.977661,537.147705 856.993042,536.848877 
	C863.967773,536.433228 870.994080,536.537659 877.981934,536.822144 
	C882.037537,536.987305 883.532288,535.845459 883.418823,531.558167 
	C883.132446,520.733276 883.321777,509.895721 883.322083,499.063232 
	C883.322632,483.231140 883.418762,467.398132 883.261292,451.567627 
	C883.220642,447.481323 884.546753,445.813049 888.745422,446.107910 
	C892.891296,446.399078 897.109436,446.514221 901.230957,446.084503 
	C906.515259,445.533569 907.592102,447.736969 907.550781,452.626068 
	C907.329712,478.788788 907.531982,504.954926 907.364136,531.118408 
	C907.336060,535.494263 908.674500,537.019653 913.079407,536.825012 
	C920.065186,536.516296 927.087402,536.487122 934.069641,536.834045 
	C938.752563,537.066772 940.370972,535.759705 940.345337,530.781128 
	C940.143799,491.618561 940.490173,452.451843 940.080811,413.292542 
	C939.949158,400.701111 938.883606,387.986389 936.751587,375.584869 
	C934.428833,362.074097 928.413940,350.204346 914.894409,344.057800 
	C888.688904,332.143646 862.278625,344.671967 854.903503,372.386444 
	C850.785461,387.861572 850.516846,403.661407 850.583984,420.503204 
M572.140259,388.053101 
	C574.219727,401.711761 579.867920,413.865417 588.313660,424.638336 
	C594.473755,432.495728 601.212463,439.899292 607.688232,447.509430 
	C614.555237,455.579254 620.149841,464.415497 623.181580,474.636536 
	C626.745117,486.650665 628.011414,498.866913 623.992981,510.993805 
	C621.265137,519.226013 613.221436,521.733459 606.423096,516.330505 
	C603.325928,513.869141 600.119690,510.148804 599.311157,506.481750 
	C597.363159,497.646729 596.277710,488.530701 595.855957,479.480896 
	C595.559753,473.124237 596.928101,466.690002 597.592529,459.888245 
	C589.408386,459.182556 581.705261,459.569977 574.393372,462.898712 
	C569.923889,464.933411 566.356018,468.296875 565.763367,473.200653 
	C564.953735,479.899384 564.207764,486.819855 564.994934,493.460327 
	C568.351379,521.775208 583.869202,537.767639 609.935242,540.663269 
	C628.256042,542.698486 646.668457,532.785950 653.437988,516.057556 
	C663.417419,491.396637 661.377747,467.235352 646.590149,445.094971 
	C640.561707,436.069031 632.144897,428.614868 624.653931,420.595795 
	C617.118591,412.529388 609.944702,404.230133 605.585693,393.931213 
	C602.401062,386.406799 601.056580,378.614685 603.054565,370.519867 
	C604.133362,366.149353 606.531921,362.932617 611.330566,362.320587 
	C615.933044,361.733582 619.861145,363.256073 621.600220,367.631866 
	C623.292297,371.889465 624.704834,376.442657 625.137451,380.971375 
	C625.731323,387.187500 625.286072,393.502899 625.286072,400.746552 
	C631.459778,400.294220 637.991394,400.470886 644.229370,399.203156 
	C653.310181,397.357727 657.585938,392.052826 656.867188,382.817841 
	C656.350647,376.180084 654.865784,369.213837 652.043396,363.228485 
	C639.039062,335.650635 596.393372,331.980408 578.756653,356.596436 
	C572.143494,365.826538 571.238098,376.284180 572.140259,388.053101 
M508.895386,340.564880 
	C506.234772,340.454376 503.567963,340.168304 500.914490,340.261292 
	C480.839783,340.964966 465.938202,352.771210 462.416473,371.657288 
	C460.166809,383.721649 462.532196,395.463165 467.441681,406.727539 
	C472.932617,419.325897 481.822357,429.472595 490.758362,439.579315 
	C500.070465,450.111359 509.033325,460.852203 513.084900,474.673584 
	C516.559814,486.527649 517.850159,498.588196 514.026611,510.571960 
	C511.175415,519.508118 502.520172,521.906616 495.423981,515.756287 
	C492.766083,513.452637 490.626831,510.164551 489.191559,506.910522 
	C485.267975,498.014832 485.072144,488.457123 485.583466,478.943970 
	C485.919128,472.698334 486.831818,466.483704 487.596893,459.200104 
	C481.641388,459.758026 476.174866,459.895233 470.853973,460.846832 
	C459.837982,462.816986 454.268677,469.313812 454.230408,480.561768 
	C454.209045,486.846527 454.820190,493.205353 455.866821,499.409210 
	C459.937592,523.538574 476.050751,538.345886 500.364410,540.705994 
	C518.637512,542.479736 536.495911,532.695312 543.315674,515.993042 
	C553.314087,491.506012 551.261169,467.464722 536.692627,445.455048 
	C530.432007,435.996582 521.139954,428.601318 513.924622,419.701538 
	C507.263916,411.485962 500.899536,402.882446 495.606659,393.752960 
	C491.459808,386.600311 490.859894,378.189331 493.077484,369.954803 
	C494.199646,365.787933 496.711884,362.839630 501.288086,362.308075 
	C505.669403,361.799194 509.591095,363.096436 511.247498,367.281281 
	C513.051392,371.838837 514.509644,376.708008 515.022766,381.557251 
	C515.660645,387.585999 515.175720,393.733521 515.175720,400.772491 
	C521.371460,400.303497 527.910400,400.459381 534.155762,399.181091 
	C543.200317,397.329834 546.872437,392.001373 546.964233,382.741669 
	C547.174988,361.480652 532.564575,344.969391 508.895386,340.564880 
M784.467041,518.419250 
	C782.280945,515.993652 779.313965,513.909485 778.072876,511.070770 
	C775.557922,505.318359 773.437744,499.274567 772.106567,493.144257 
	C766.584717,467.715332 765.469177,441.895416 768.121826,416.126038 
	C769.541260,402.336945 773.090820,388.703552 776.533508,375.217987 
	C777.886353,369.918640 780.958923,364.031586 788.098389,364.743073 
	C795.107788,365.441589 797.568970,371.374268 798.601196,377.168213 
	C800.024963,385.160065 800.565186,393.326813 801.159180,401.442413 
	C801.506714,406.191040 801.222534,410.985931 801.222534,415.844421 
	C807.807129,415.844421 813.824890,416.374603 819.708618,415.712830 
	C827.393921,414.848389 831.358704,410.732452 831.004150,403.006866 
	C830.526428,392.595612 829.776611,382.005859 827.369629,371.915894 
	C823.049194,353.804932 811.399475,342.648590 792.344177,340.601532 
	C773.533142,338.580750 759.283997,346.044739 749.544739,362.166534 
	C743.437988,372.275360 740.042786,383.384430 737.890015,394.909058 
	C732.859070,421.841431 732.894470,448.924622 736.252258,475.988495 
	C738.187378,491.585907 742.051331,506.749115 750.677856,520.260437 
	C768.251648,547.785156 805.322510,547.938110 822.319153,520.336060 
	C831.651489,505.180603 833.770996,488.218292 832.834839,470.790405 
	C832.595520,466.334503 830.199951,462.254120 825.742737,461.460419 
	C818.032166,460.087341 810.133911,459.768066 801.878967,458.964355 
	C801.878967,469.085297 802.499451,477.782593 801.703918,486.348389 
	C800.912354,494.871277 799.248535,503.418579 796.905823,511.653259 
	C795.458069,516.742493 791.108276,519.700684 784.467041,518.419250 
M374.752533,534.795105 
	C393.620697,545.700867 418.178040,542.596619 430.298950,519.598450 
	C438.310394,504.397522 440.353424,487.962585 439.895782,471.177277 
	C439.811737,468.094391 437.358185,463.758270 434.727814,462.312958 
	C427.221008,458.188080 418.820038,459.219055 410.538940,459.980042 
	C410.538940,461.743988 410.526489,462.893402 410.540894,464.042480 
	C410.688934,475.855225 411.170898,487.677612 410.825043,499.475739 
	C410.692596,503.992340 409.125946,508.641235 407.376099,512.884766 
	C405.775787,516.765625 402.288086,519.030579 397.808929,518.924744 
	C393.416443,518.820984 391.391815,515.664062 390.080139,512.145020 
	C388.807739,508.731415 387.383911,505.167175 387.169708,501.600433 
	C385.962616,481.501190 385.133881,461.379486 384.087036,441.270081 
	C383.911804,437.904694 385.352295,436.929047 388.505646,437.018738 
	C394.333374,437.184448 400.169220,437.064880 406.001678,437.064606 
	C412.096130,437.064301 418.190582,437.064545 424.379272,437.064545 
	C424.379272,428.739502 424.379272,421.162872 424.379272,413.074493 
	C422.424744,413.074493 420.804260,413.074646 419.183807,413.074463 
	C409.018646,413.073334 398.851746,412.964020 388.689331,413.130676 
	C385.224518,413.187469 384.010376,412.020020 384.059998,408.528656 
	C384.220886,397.199310 384.230011,385.864502 384.053589,374.535614 
	C383.998322,370.987122 385.276459,369.952240 388.704376,369.989929 
	C402.200714,370.138367 415.699677,370.050842 429.197662,370.050903 
	C431.472107,370.050903 433.746521,370.050903 436.527527,370.050903 
	C436.527527,362.785248 436.239777,356.135864 436.624146,349.525513 
	C436.901031,344.763092 435.476959,343.214874 430.554474,343.262543 
	C406.227051,343.498230 381.894623,343.512054 357.567596,343.255249 
	C352.387329,343.200623 351.136292,344.883392 351.161865,349.836365 
	C351.350281,386.329926 351.026031,422.827332 351.393616,459.318176 
	C351.520660,471.933746 352.421204,484.643616 354.287689,497.112915 
	C356.461670,511.636353 361.177368,525.352356 374.752533,534.795105 
M331.744171,373.500061 
	C331.740936,365.003448 331.624573,356.504669 331.788940,348.011322 
	C331.856812,344.505951 330.465240,343.274902 327.081940,343.334930 
	C319.920471,343.462006 312.755096,343.368073 305.591339,343.368256 
	C292.096771,343.368622 278.600677,343.276825 265.109680,343.496735 
	C263.482452,343.523254 260.535492,345.174042 260.484558,346.186859 
	C260.094543,353.947601 260.270416,361.736847 260.270416,370.051300 
	C272.024780,370.051300 283.147156,370.159119 294.265198,369.986267 
	C297.644836,369.933746 299.072662,370.846405 298.995453,374.439087 
	C298.190430,411.897400 297.764771,449.366913 296.545990,486.810944 
	C296.280609,494.964569 293.655609,503.135834 291.388519,511.091278 
	C290.199921,515.262207 287.260651,518.924255 282.106415,518.926697 
	C277.183716,518.929016 274.169922,515.837280 272.143677,511.747650 
	C271.120392,509.682281 270.007141,507.432800 269.852783,505.203033 
	C268.912964,491.628021 268.047729,478.041016 267.596558,464.443451 
	C267.472198,460.694550 267.015045,458.808136 262.761536,459.219391 
	C258.794922,459.602875 254.758728,459.234070 250.782562,459.557739 
	C239.589584,460.468811 235.379288,464.610962 236.083252,475.908142 
	C236.732056,486.319977 237.616669,496.964539 240.395126,506.950806 
	C249.486313,539.626221 277.375824,545.809326 298.983551,537.638733 
	C311.943542,532.738220 317.856995,521.344421 321.942291,509.029175 
	C328.458679,489.385345 330.163300,468.927002 330.807037,448.454529 
	C331.581726,423.817596 331.471222,399.152802 331.744171,373.500061 
M711.913696,356.516449 
	C711.914124,353.852020 711.695190,351.164948 711.967041,348.528503 
	C712.360779,344.709961 710.775513,343.595642 707.120483,343.707611 
	C699.966553,343.926758 692.801147,343.763824 685.640503,343.771942 
	C679.060120,343.779358 679.048584,343.786804 679.048218,350.318817 
	C679.045105,410.434937 679.045959,470.551056 679.048584,530.667175 
	C679.048645,531.998962 678.824585,533.407776 679.189819,534.636597 
	C679.451416,535.516724 680.514893,536.795776 681.236023,536.805969 
	C691.324768,536.948181 701.416138,536.902344 711.913696,536.902344 
	C711.913696,476.677277 711.913696,417.094696 711.913696,356.516449 
z"/>
<path fill="#FBFAFA" opacity="1.000000" stroke="none" 
	d="
M622.715210,602.287781 
	C628.941345,624.953247 635.314270,647.184143 641.064026,669.575073 
	C651.327759,709.544495 661.204651,749.613220 671.278198,789.631592 
	C672.178040,793.206421 673.332886,796.717041 674.369263,800.257507 
	C674.832397,800.195435 675.295593,800.133423 675.758789,800.071350 
	C675.758789,797.824097 675.758789,795.576843 675.758789,793.329590 
	C675.758301,724.338989 675.807556,655.348267 675.652161,586.358032 
	C675.641113,581.449097 676.681335,579.638123 681.944092,579.788818 
	C695.098206,580.165466 708.270935,579.983643 721.434753,579.870544 
	C724.742493,579.842102 726.188354,580.744019 726.182922,584.378052 
	C726.047546,675.364868 726.054504,766.351807 725.807251,857.338196 
	C725.794617,862.002747 724.388428,866.942749 722.509460,871.267090 
	C718.124756,881.357544 707.406372,885.877502 696.491516,884.357910 
	C685.271179,882.795715 677.804199,876.491333 674.169800,866.724487 
	C668.388123,851.187439 663.350037,835.300232 659.170654,819.255615 
	C650.657593,786.574036 642.938538,753.685730 634.869507,720.888306 
	C630.020752,701.179626 625.146240,681.477295 620.237427,661.783508 
	C619.530579,658.947571 618.566101,656.175903 616.848877,653.492798 
	C616.848877,656.256653 616.848938,659.020447 616.848877,661.784241 
	C616.848267,732.107971 616.802612,802.431885 616.948181,872.755310 
	C616.957886,877.453125 615.878357,879.042114 610.950500,878.914612 
	C597.627930,878.569824 584.288696,878.674011 570.960205,878.875244 
	C567.185669,878.932190 566.205322,877.725586 566.209534,874.019897 
	C566.310608,785.365417 566.255371,696.710754 566.380371,608.056396 
	C566.388245,602.457214 566.952820,596.674500 568.420959,591.294434 
	C573.885315,571.270508 600.134277,569.532959 610.399536,581.518372 
	C615.478516,587.448486 618.583252,595.069397 622.715210,602.287781 
z"/>
<path fill="#FBFBFA" opacity="1.000000" stroke="none" 
	d="
M389.497986,871.793030 
	C389.498077,807.013184 389.441284,742.706665 389.529022,678.400391 
	C389.558685,656.667114 391.398895,635.107849 399.137604,614.558350 
	C405.145844,598.603882 414.393768,585.006592 431.378082,579.280884 
	C453.227661,571.915039 475.074585,571.807373 495.490295,583.821838 
	C509.832947,592.262390 516.458069,606.598572 520.961426,621.908264 
	C527.517944,644.197815 528.327637,667.198547 528.403625,690.179321 
	C528.603516,750.653320 528.474121,811.128479 528.468323,871.603149 
	C528.467651,878.795227 528.446045,878.796021 521.424255,878.796326 
	C508.596283,878.796936 495.765076,878.633118 482.942230,878.889587 
	C478.757355,878.973267 477.604492,877.702820 477.618378,873.553589 
	C477.759735,831.405029 477.706238,789.255859 477.704773,747.106812 
	C477.704498,739.324341 477.699280,739.326904 469.714020,739.330383 
	C461.717377,739.333801 453.699951,739.679321 445.731659,739.203979 
	C440.754883,738.907104 440.059662,740.836914 440.074493,745.180176 
	C440.218719,787.328735 440.161102,829.477905 440.161102,871.626953 
	C440.161102,873.757446 440.161133,875.888000 440.161133,878.795410 
	C437.178955,878.795410 434.742279,878.795410 432.305573,878.795471 
	C420.144012,878.795532 407.982422,878.795166 395.820862,878.795654 
	C389.469574,878.795898 389.469574,878.796570 389.497986,871.793030 
M443.546082,631.974548 
	C439.605011,653.238098 440.075409,674.738403 440.296570,696.209656 
	C440.306915,697.212097 442.534424,699.021790 443.762207,699.050537 
	C453.749969,699.283813 463.745789,699.140930 473.738525,699.208618 
	C476.457214,699.227051 477.845734,698.146057 477.684601,695.390137 
	C476.393616,673.312256 475.376129,651.211792 473.574066,629.175476 
	C473.144226,623.919189 470.872772,618.385437 468.053284,613.845764 
	C462.896393,605.542542 454.607208,605.524963 449.776794,613.893005 
	C446.783569,619.078430 445.682953,625.356445 443.546082,631.974548 
z"/>
<path fill="#FBFAFA" opacity="1.000000" stroke="none" 
	d="
M813.521240,684.654663 
	C812.709717,704.394897 812.022705,723.686523 811.204468,742.972656 
	C811.009033,747.580627 812.868225,748.804871 817.416565,748.783569 
	C856.232971,748.601868 895.050659,748.674438 933.867920,748.685730 
	C940.461792,748.687622 940.546509,748.780640 940.566040,755.405823 
	C940.590637,763.735657 940.372742,772.072021 940.646484,780.392883 
	C940.799500,785.043213 939.049683,786.572693 934.516357,786.337585 
	C928.534912,786.027527 922.513611,786.486206 916.532166,786.176453 
	C912.933594,785.990112 912.087463,787.227539 911.951477,790.668823 
	C911.084778,812.605591 905.927612,833.350525 895.026062,852.644897 
	C872.479431,892.549683 817.697388,895.980774 790.380737,859.138245 
	C777.680054,842.008545 771.249390,822.407349 766.926147,801.898376 
	C759.611450,767.198303 759.574951,732.022644 761.423340,696.921692 
	C762.798889,670.799133 767.098083,644.933655 777.932129,620.724915 
	C785.944153,602.821838 796.859680,587.221619 815.875427,579.600708 
	C847.765808,566.820312 885.072754,576.831421 900.608948,612.752258 
	C908.906189,631.936096 911.198608,652.228394 910.593079,672.860657 
	C910.245972,684.691589 905.535400,690.046387 893.940063,691.470398 
	C885.229919,692.540161 876.329834,692.070190 867.513855,692.268127 
	C864.403137,692.337952 864.182983,690.211365 864.186584,687.866516 
	C864.200195,678.870361 864.835938,669.814453 864.019287,660.892517 
	C862.871948,648.357239 860.947388,635.864807 858.678040,623.478088 
	C857.999146,619.772888 855.505615,616.121399 853.058594,613.076050 
	C847.736389,606.452209 839.386719,606.331177 833.505127,612.480713 
	C827.044250,619.235840 824.190857,627.931152 822.308594,636.656067 
	C818.912415,652.399109 816.450012,668.343628 813.521240,684.654663 
M814.936890,789.435303 
	C816.199707,797.145752 816.765930,805.054810 818.894226,812.518494 
	C821.836243,822.835938 825.461792,833.032959 829.751404,842.864075 
	C832.394226,848.920715 838.031067,851.705811 845.030518,850.758606 
	C852.631409,849.730103 856.556152,844.443665 859.172302,838.135681 
	C865.570801,822.707703 865.153870,806.246765 865.872375,789.982666 
	C866.035034,786.300171 863.267029,786.770813 860.996765,786.765564 
	C847.178406,786.733826 833.359314,786.689819 819.542114,786.820435 
	C818.014771,786.834900 816.497742,787.929993 814.936890,789.435303 
z"/>
<path fill="#FBFAFA" opacity="1.000000" stroke="none" 
	d="
M235.917603,825.000000 
	C235.917679,745.366150 235.917084,666.232239 235.918961,587.098389 
	C235.919128,580.005188 235.926575,579.999695 242.905655,579.999268 
	C280.889923,579.996704 318.874542,580.076355 356.857941,579.895264 
	C361.570312,579.872803 363.236755,581.029053 363.056091,585.944153 
	C362.689178,595.926514 362.766357,605.936707 363.033295,615.925415 
	C363.141235,619.965210 361.778320,621.011719 357.883362,620.981995 
	C336.226929,620.816406 314.567047,621.038330 292.912109,620.793762 
	C287.996521,620.738281 286.775604,622.338684 286.821869,627.069702 
	C287.048370,650.224548 287.017273,673.383606 286.840027,696.539246 
	C286.808411,700.667725 287.952393,701.943909 292.165009,701.891296 
	C310.154755,701.666626 328.148895,701.795166 346.141449,701.794800 
	C347.921936,701.794739 349.702454,701.794861 352.034241,701.794861 
	C352.034241,713.694519 352.055756,724.972961 352.021698,736.251221 
	C352.010895,739.823059 349.233704,738.865295 347.274048,738.870361 
	C329.281616,738.917236 311.286499,739.063354 293.298126,738.788208 
	C288.321106,738.712097 286.779053,740.015137 286.804993,745.182983 
	C287.017426,787.497681 286.928253,829.813965 286.922729,872.129761 
	C286.921875,878.782959 286.903320,878.790771 280.293640,878.793396 
	C267.299042,878.798645 254.302750,878.677673 241.310791,878.863037 
	C237.267059,878.920776 235.775650,877.718567 235.832550,873.478821 
	C236.047165,857.488342 235.918060,841.493347 235.917603,825.000000 
z"/>
<path fill="#FBFAF9" opacity="1.000000" stroke="none" 
	d="
M850.584290,420.004333 
	C850.516846,403.661407 850.785461,387.861572 854.903503,372.386444 
	C862.278625,344.671967 888.688904,332.143646 914.894409,344.057800 
	C928.413940,350.204346 934.428833,362.074097 936.751587,375.584869 
	C938.883606,387.986389 939.949158,400.701111 940.080811,413.292542 
	C940.490173,452.451843 940.143799,491.618561 940.345337,530.781128 
	C940.370972,535.759705 938.752563,537.066772 934.069641,536.834045 
	C927.087402,536.487122 920.065186,536.516296 913.079407,536.825012 
	C908.674500,537.019653 907.336060,535.494263 907.364136,531.118408 
	C907.531982,504.954926 907.329712,478.788788 907.550781,452.626068 
	C907.592102,447.736969 906.515259,445.533569 901.230957,446.084503 
	C897.109436,446.514221 892.891296,446.399078 888.745422,446.107910 
	C884.546753,445.813049 883.220642,447.481323 883.261292,451.567627 
	C883.418762,467.398132 883.322632,483.231140 883.322083,499.063232 
	C883.321777,509.895721 883.132446,520.733276 883.418823,531.558167 
	C883.532288,535.845459 882.037537,536.987305 877.981934,536.822144 
	C870.994080,536.537659 863.967773,536.433228 856.993042,536.848877 
	C851.977661,537.147705 850.441528,535.642273 850.471436,530.493958 
	C850.684570,493.831390 850.584412,457.167023 850.584290,420.004333 
M884.369995,387.900085 
	C884.007202,397.382599 883.638000,406.864899 883.285950,416.347809 
	C883.200317,418.656799 883.367432,420.820648 886.515869,420.819061 
	C893.295654,420.815613 900.075378,420.817993 906.360718,420.817993 
	C906.360718,408.155579 906.704407,396.046265 906.200623,383.972321 
	C905.983032,378.756195 904.588928,373.378601 902.609985,368.531342 
	C901.548828,365.932068 898.397095,363.190521 895.682495,362.498230 
	C891.732056,361.490814 889.187927,365.018555 888.264893,368.482330 
	C886.646057,374.557892 885.696106,380.811646 884.369995,387.900085 
z"/>
<path fill="#FBFAF9" opacity="1.000000" stroke="none" 
	d="
M572.101562,387.592834 
	C571.238098,376.284180 572.143494,365.826538 578.756653,356.596436 
	C596.393372,331.980408 639.039062,335.650635 652.043396,363.228485 
	C654.865784,369.213837 656.350647,376.180084 656.867188,382.817841 
	C657.585938,392.052826 653.310181,397.357727 644.229370,399.203156 
	C637.991394,400.470886 631.459778,400.294220 625.286072,400.746552 
	C625.286072,393.502899 625.731323,387.187500 625.137451,380.971375 
	C624.704834,376.442657 623.292297,371.889465 621.600220,367.631866 
	C619.861145,363.256073 615.933044,361.733582 611.330566,362.320587 
	C606.531921,362.932617 604.133362,366.149353 603.054565,370.519867 
	C601.056580,378.614685 602.401062,386.406799 605.585693,393.931213 
	C609.944702,404.230133 617.118591,412.529388 624.653931,420.595795 
	C632.144897,428.614868 640.561707,436.069031 646.590149,445.094971 
	C661.377747,467.235352 663.417419,491.396637 653.437988,516.057556 
	C646.668457,532.785950 628.256042,542.698486 609.935242,540.663269 
	C583.869202,537.767639 568.351379,521.775208 564.994934,493.460327 
	C564.207764,486.819855 564.953735,479.899384 565.763367,473.200653 
	C566.356018,468.296875 569.923889,464.933411 574.393372,462.898712 
	C581.705261,459.569977 589.408386,459.182556 597.592529,459.888245 
	C596.928101,466.690002 595.559753,473.124237 595.855957,479.480896 
	C596.277710,488.530701 597.363159,497.646729 599.311157,506.481750 
	C600.119690,510.148804 603.325928,513.869141 606.423096,516.330505 
	C613.221436,521.733459 621.265137,519.226013 623.992981,510.993805 
	C628.011414,498.866913 626.745117,486.650665 623.181580,474.636536 
	C620.149841,464.415497 614.555237,455.579254 607.688232,447.509430 
	C601.212463,439.899292 594.473755,432.495728 588.313660,424.638336 
	C579.867920,413.865417 574.219727,401.711761 572.101562,387.592834 
z"/>
<path fill="#FBFAF9" opacity="1.000000" stroke="none" 
	d="
M509.329468,340.633057 
	C532.564575,344.969391 547.174988,361.480652 546.964233,382.741669 
	C546.872437,392.001373 543.200317,397.329834 534.155762,399.181091 
	C527.910400,400.459381 521.371460,400.303497 515.175720,400.772491 
	C515.175720,393.733521 515.660645,387.585999 515.022766,381.557251 
	C514.509644,376.708008 513.051392,371.838837 511.247498,367.281281 
	C509.591095,363.096436 505.669403,361.799194 501.288086,362.308075 
	C496.711884,362.839630 494.199646,365.787933 493.077484,369.954803 
	C490.859894,378.189331 491.459808,386.600311 495.606659,393.752960 
	C500.899536,402.882446 507.263916,411.485962 513.924622,419.701538 
	C521.139954,428.601318 530.432007,435.996582 536.692627,445.455048 
	C551.261169,467.464722 553.314087,491.506012 543.315674,515.993042 
	C536.495911,532.695312 518.637512,542.479736 500.364410,540.705994 
	C476.050751,538.345886 459.937592,523.538574 455.866821,499.409210 
	C454.820190,493.205353 454.209045,486.846527 454.230408,480.561768 
	C454.268677,469.313812 459.837982,462.816986 470.853973,460.846832 
	C476.174866,459.895233 481.641388,459.758026 487.596893,459.200104 
	C486.831818,466.483704 485.919128,472.698334 485.583466,478.943970 
	C485.072144,488.457123 485.267975,498.014832 489.191559,506.910522 
	C490.626831,510.164551 492.766083,513.452637 495.423981,515.756287 
	C502.520172,521.906616 511.175415,519.508118 514.026611,510.571960 
	C517.850159,498.588196 516.559814,486.527649 513.084900,474.673584 
	C509.033325,460.852203 500.070465,450.111359 490.758362,439.579315 
	C481.822357,429.472595 472.932617,419.325897 467.441681,406.727539 
	C462.532196,395.463165 460.166809,383.721649 462.416473,371.657288 
	C465.938202,352.771210 480.839783,340.964966 500.914490,340.261292 
	C503.567963,340.168304 506.234772,340.454376 509.329468,340.633057 
z"/>
<path fill="#FBFAF9" opacity="1.000000" stroke="none" 
	d="
M784.824707,518.564575 
	C791.108276,519.700684 795.458069,516.742493 796.905823,511.653259 
	C799.248535,503.418579 800.912354,494.871277 801.703918,486.348389 
	C802.499451,477.782593 801.878967,469.085297 801.878967,458.964355 
	C810.133911,459.768066 818.032166,460.087341 825.742737,461.460419 
	C830.199951,462.254120 832.595520,466.334503 832.834839,470.790405 
	C833.770996,488.218292 831.651489,505.180603 822.319153,520.336060 
	C805.322510,547.938110 768.251648,547.785156 750.677856,520.260437 
	C742.051331,506.749115 738.187378,491.585907 736.252258,475.988495 
	C732.894470,448.924622 732.859070,421.841431 737.890015,394.909058 
	C740.042786,383.384430 743.437988,372.275360 749.544739,362.166534 
	C759.283997,346.044739 773.533142,338.580750 792.344177,340.601532 
	C811.399475,342.648590 823.049194,353.804932 827.369629,371.915894 
	C829.776611,382.005859 830.526428,392.595612 831.004150,403.006866 
	C831.358704,410.732452 827.393921,414.848389 819.708618,415.712830 
	C813.824890,416.374603 807.807129,415.844421 801.222534,415.844421 
	C801.222534,410.985931 801.506714,406.191040 801.159180,401.442413 
	C800.565186,393.326813 800.024963,385.160065 798.601196,377.168213 
	C797.568970,371.374268 795.107788,365.441589 788.098389,364.743073 
	C780.958923,364.031586 777.886353,369.918640 776.533508,375.217987 
	C773.090820,388.703552 769.541260,402.336945 768.121826,416.126038 
	C765.469177,441.895416 766.584717,467.715332 772.106567,493.144257 
	C773.437744,499.274567 775.557922,505.318359 778.072876,511.070770 
	C779.313965,513.909485 782.280945,515.993652 784.824707,518.564575 
z"/>
<path fill="#FBF9F9" opacity="1.000000" stroke="none" 
	d="
M374.463257,534.575623 
	C361.177368,525.352356 356.461670,511.636353 354.287689,497.112915 
	C352.421204,484.643616 351.520660,471.933746 351.393616,459.318176 
	C351.026031,422.827332 351.350281,386.329926 351.161865,349.836365 
	C351.136292,344.883392 352.387329,343.200623 357.567596,343.255249 
	C381.894623,343.512054 406.227051,343.498230 430.554474,343.262543 
	C435.476959,343.214874 436.901031,344.763092 436.624146,349.525513 
	C436.239777,356.135864 436.527527,362.785248 436.527527,370.050903 
	C433.746521,370.050903 431.472107,370.050903 429.197662,370.050903 
	C415.699677,370.050842 402.200714,370.138367 388.704376,369.989929 
	C385.276459,369.952240 383.998322,370.987122 384.053589,374.535614 
	C384.230011,385.864502 384.220886,397.199310 384.059998,408.528656 
	C384.010376,412.020020 385.224518,413.187469 388.689331,413.130676 
	C398.851746,412.964020 409.018646,413.073334 419.183807,413.074463 
	C420.804260,413.074646 422.424744,413.074493 424.379272,413.074493 
	C424.379272,421.162872 424.379272,428.739502 424.379272,437.064545 
	C418.190582,437.064545 412.096130,437.064301 406.001678,437.064606 
	C400.169220,437.064880 394.333374,437.184448 388.505646,437.018738 
	C385.352295,436.929047 383.911804,437.904694 384.087036,441.270081 
	C385.133881,461.379486 385.962616,481.501190 387.169708,501.600433 
	C387.383911,505.167175 388.807739,508.731415 390.080139,512.145020 
	C391.391815,515.664062 393.416443,518.820984 397.808929,518.924744 
	C402.288086,519.030579 405.775787,516.765625 407.376099,512.884766 
	C409.125946,508.641235 410.692596,503.992340 410.825043,499.475739 
	C411.170898,487.677612 410.688934,475.855225 410.540894,464.042480 
	C410.526489,462.893402 410.538940,461.743988 410.538940,459.980042 
	C418.820038,459.219055 427.221008,458.188080 434.727814,462.312958 
	C437.358185,463.758270 439.811737,468.094391 439.895782,471.177277 
	C440.353424,487.962585 438.310394,504.397522 430.298950,519.598450 
	C418.178040,542.596619 393.620697,545.700867 374.463257,534.575623 
z"/>
<path fill="#FBF9F8" opacity="1.000000" stroke="none" 
	d="
M331.744080,374.000061 
	C331.471222,399.152802 331.581726,423.817596 330.807037,448.454529 
	C330.163300,468.927002 328.458679,489.385345 321.942291,509.029175 
	C317.856995,521.344421 311.943542,532.738220 298.983551,537.638733 
	C277.375824,545.809326 249.486313,539.626221 240.395126,506.950806 
	C237.616669,496.964539 236.732056,486.319977 236.083252,475.908142 
	C235.379288,464.610962 239.589584,460.468811 250.782562,459.557739 
	C254.758728,459.234070 258.794922,459.602875 262.761536,459.219391 
	C267.015045,458.808136 267.472198,460.694550 267.596558,464.443451 
	C268.047729,478.041016 268.912964,491.628021 269.852783,505.203033 
	C270.007141,507.432800 271.120392,509.682281 272.143677,511.747650 
	C274.169922,515.837280 277.183716,518.929016 282.106415,518.926697 
	C287.260651,518.924255 290.199921,515.262207 291.388519,511.091278 
	C293.655609,503.135834 296.280609,494.964569 296.545990,486.810944 
	C297.764771,449.366913 298.190430,411.897400 298.995453,374.439087 
	C299.072662,370.846405 297.644836,369.933746 294.265198,369.986267 
	C283.147156,370.159119 272.024780,370.051300 260.270416,370.051300 
	C260.270416,361.736847 260.094543,353.947601 260.484558,346.186859 
	C260.535492,345.174042 263.482452,343.523254 265.109680,343.496735 
	C278.600677,343.276825 292.096771,343.368622 305.591339,343.368256 
	C312.755096,343.368073 319.920471,343.462006 327.081940,343.334930 
	C330.465240,343.274902 331.856812,344.505951 331.788940,348.011322 
	C331.624573,356.504669 331.740936,365.003448 331.744080,374.000061 
z"/>
<path fill="#FBFAFA" opacity="1.000000" stroke="none" 
	d="
M711.913696,357.014282 
	C711.913696,417.094696 711.913696,476.677277 711.913696,536.902344 
	C701.416138,536.902344 691.324768,536.948181 681.236023,536.805969 
	C680.514893,536.795776 679.451416,535.516724 679.189819,534.636597 
	C678.824585,533.407776 679.048645,531.998962 679.048584,530.667175 
	C679.045959,470.551056 679.045105,410.434937 679.048218,350.318817 
	C679.048584,343.786804 679.060120,343.779358 685.640503,343.771942 
	C692.801147,343.763824 699.966553,343.926758 707.120483,343.707611 
	C710.775513,343.595642 712.360779,344.709961 711.967041,348.528503 
	C711.695190,351.164948 711.914124,353.852020 711.913696,357.014282 
z"/>
<path fill="#F87F51" opacity="1.000000" stroke="none" 
	d="
M443.639404,631.559265 
	C445.682953,625.356445 446.783569,619.078430 449.776794,613.893005 
	C454.607208,605.524963 462.896393,605.542542 468.053284,613.845764 
	C470.872772,618.385437 473.144226,623.919189 473.574066,629.175476 
	C475.376129,651.211792 476.393616,673.312256 477.684601,695.390137 
	C477.845734,698.146057 476.457214,699.227051 473.738525,699.208618 
	C463.745789,699.140930 453.749969,699.283813 443.762207,699.050537 
	C442.534424,699.021790 440.306915,697.212097 440.296570,696.209656 
	C440.075409,674.738403 439.605011,653.238098 443.639404,631.559265 
z"/>
<path fill="#F87E51" opacity="1.000000" stroke="none" 
	d="
M814.956421,788.979614 
	C816.497742,787.929993 818.014771,786.834900 819.542114,786.820435 
	C833.359314,786.689819 847.178406,786.733826 860.996765,786.765564 
	C863.267029,786.770813 866.035034,786.300171 865.872375,789.982666 
	C865.153870,806.246765 865.570801,822.707703 859.172302,838.135681 
	C856.556152,844.443665 852.631409,849.730103 845.030518,850.758606 
	C838.031067,851.705811 832.394226,848.920715 829.751404,842.864075 
	C825.461792,833.032959 821.836243,822.835938 818.894226,812.518494 
	C816.765930,805.054810 816.199707,797.145752 814.956421,788.979614 
z"/>
<path fill="#F87F51" opacity="1.000000" stroke="none" 
	d="
M884.417969,387.445435 
	C885.696106,380.811646 886.646057,374.557892 888.264893,368.482330 
	C889.187927,365.018555 891.732056,361.490814 895.682495,362.498230 
	C898.397095,363.190521 901.548828,365.932068 902.609985,368.531342 
	C904.588928,373.378601 905.983032,378.756195 906.200623,383.972321 
	C906.704407,396.046265 906.360718,408.155579 906.360718,420.817993 
	C900.075378,420.817993 893.295654,420.815613 886.515869,420.819061 
	C883.367432,420.820648 883.200317,418.656799 883.285950,416.347809 
	C883.638000,406.864899 884.007202,397.382599 884.417969,387.445435 
z"/>
</svg>